<?xml version="1.0" encoding="UTF-8"?>
<svg id="Layer_1" data-name="Layer 1" xmlns="http://www.w3.org/2000/svg" viewBox="0 0 666.65935 666.65935">
  <defs>
    <style>
      .cls-1 {
        fill: #202020;
      }
    </style>
  </defs>
  <path class="cls-1" d="M347.08892,104.74115h-33.82959c-8.62695-.09521-15.62793,6.87354-15.62207,15.62158-.00049.74463.60498,1.30518,1.34766,1.24561,20.7627-1.56641,41.61621-1.56641,62.37891,0,.74072.0542,1.34619-.49854,1.34766-1.24561.00195-8.74756-6.99512-15.71729-15.62256-15.62158Z"/>
  <path class="cls-1" d="M377.40484,274.59125c1.03418,0,1.87207-.83838,1.87207-1.87256v-1.49805c0-5.29248-4.29004-9.58252-9.58203-9.58252h-71.14844c-5.29199,0-9.58203,4.29004-9.58203,9.58252v1.49805c0,1.03418.83838,1.87256,1.87256,1.87256h86.56787Z"/>
  <path class="cls-1" d="M269.27838,284.51605c0,6.85352,28.67334,12.40918,64.04297,12.40918s64.04297-5.55566,64.04297-12.40918-28.67285-4.15234-64.04297-4.15234-64.04297-2.70117-64.04297,4.15234Z"/>
  <path class="cls-1" d="M450.97418,581.82465l-13.80176-12.0498c-42.91748,5.71924-86.44971,6.10498-129.69531,4.29639l14.98779-1.73877c.0459-.00244.09131-.00488.13672-.00684,27.60596.47705,55.29102-1.07031,82.68799-4.27783,5.05273-.59131,33.44971-4.0791,35.33008-6.02588,1.93799-2.00635,1.74365-16.76074.93262-19.8667-.19092-.73096-3.94238-4.63623-6.57422-7.06006-1.33643-1.23145-3.18311-1.75342-4.95703-1.35498-30.0874,6.75244-73.0625,2.68799-95.35254-1.36963-1.33301-.24268-1.0957-2.22021.25635-2.1416,23.20996,1.34326,70.75635,2.84912,87.13379-5.97314,1.52197-.81982,1.8042-2.87939.55664-4.0752l-23.42334-22.46631c-5.38574,3.3335-83.23633,8.86816-100.83691-8.64795.0918.021,46.39111,10.77979,98.07471-1.0752,0,0,7.45947-3.52979,7.65186-7.26172.07715-1.50732-1.19482-11.98486-1.75146-12.95215-.99219-1.72314-18.30566-19.08154-19.87842-22.31201-16.71533-34.33691-6.97998-73.80615-9.36035-110.8916,1.77344-9.59668,6.65381-19.19922,12.84326-26.75586,1.29492-1.58057,4.24219-3.16113,4.68604-3.91992,1.03857-1.77637,2.04395-7.6748-.68311-8.06494,0,0-.01123.00342-.02588.00732-6.99854,4.85938-30.00781,8.42529-57.33301,8.42529-29.13281,0-53.3623-4.05322-58.50879-9.40576,1.04688,2.61328,1.13916,7.08057,2.41504,9.25.62793,1.06738,3.74023,2.7793,5.12842,4.56689,5.6748,7.31006,10.38574,15.83057,11.99561,25.01855-3.09473,36.05908,8.74512,83.19189-11.10352,115.20898-3.14014,5.06445-17.97559,17.21484-18.7915,19.95654-.49072,1.64941-.51514,11.7002-.15723,13.57031.56689,2.96484,5.14795,4.75391,5.8374,7.0791.51807,1.74756.47852,8.05469-.27051,9.70166l-44.18945,43.64111c-.57959,1.94629-.49219,14.65137.00488,16.8501.69873,3.08887,6.0791,6.14648,5.78857,7.80664-.35645,2.03662-13.65723,12.23242-15.00244,15.19043-.72852,1.60059-.79053,9.68164-.42871,11.58057.83789,4.39355,8.20068,5.68945,9.03613,9.06982.23633.95703-1.2627,2.11426-1.35107,3.80811-.33838,6.49512-1.45068,10.56836,5.47607,12.72461,22.79736,7.09619,49.0918,9.28223,73.39355,10.15723,32.0127,1.15332,68.99023.71045,100.75732-2.72168,9.10645-.98438,32.17627-4.10303,39.26367-8.98193,3.30029-2.27197,2.67334-6.9917,1.94238-10.59961-.07959-.39307-.37402-.70508-.75781-.8208-1.05371-.31836-20.12793,4.34668-41.98242,1.12158,17.31006-2.33252,48.96533-8.13135,50.1499-12.19824.48682-1.67139.48486-12.83447-.25-14.01514ZM346.45562,465.60834c14.76514-3.55566,13.98877-5.59424,13.18164-6.94873-8.5-14.26709-6.55713-4.52734-5.49414-20.24707.16895-2.49561,3.03809-25.53857,3.20264-28.03369,1.04053-.05225.93848,7.98682,1.01514,8.60596,1.62451,13.13525,1.9209,24.58252,5.98145,30.2207,4.3335,6.0166,8.34473,12.53516,6.58008,14.99219-6.58008,9.16162-25.39209,1.63281-24.4668,1.41064Z"/>
  <path class="cls-1" d="M300.93951,256.39057h68.74707c13.15576-42.71094,26.39111-83.75195,39.24316-120.35693-13.62549-3.72754-27.46045-6.41699-41.38721-8.07129-22.20312-2.63525-44.64062-2.63525-66.84375,0-13.92773,1.6543-27.76172,4.34375-41.38721,8.07129,12.85205,36.60498,26.0874,77.646,39.24316,120.35693h2.38477Z"/>
  <path class="cls-1" d="M298.31304,81.0434c2.33887-1.18506,4.59424-2.57861,6.99902-3.62891,5.50293-2.40332,11.50049-3.91553,17.51221-4.3335.28467-.02002.5249.22217.50391.50635-.28906,3.89697-3.62451,26.2002-3.85986,26.47803h18.41992c-1.18506-9.72119-2.93311-22.48389-3.21777-26.47998-.02002-.28369.22021-.5249.50391-.50488,6.01465.41406,12.00781,1.93701,17.51367,4.33447,2.40625,1.04785,4.66064,2.44434,7,3.62842.30859.15625.67578-.07324.67578-.41992v-26.42383c0-.34668-.36719-.57617-.67578-.41992-2.33936,1.18408-4.59375,2.58057-7,3.62842-5.53223,2.40918-11.48535,3.88477-17.5166,4.33154-.28271.02148-.52441-.21777-.50732-.50098.52539-8.78076,3.62598-16.93799,7.90625-24.49756.17578-.31055-.04492-.69287-.40186-.69287h-26.37988c-.34668,0-.57666.3667-.41992.67578,1.18408,2.33936,2.58057,4.59375,3.62793,7,2.39795,5.50586,3.90527,11.50537,4.3335,17.51074.02002.28516-.22168.52588-.50684.50439-6.0293-.44727-11.97998-1.92285-17.51025-4.33105-2.40625-1.04785-4.66113-2.44434-7-3.62842-.30908-.15625-.67578.07324-.67578.41992v26.42383c0,.34668.3667.57617.67578.41992Z"/>
</svg>